<svg xmlns="http://www.w3.org/2000/svg" viewBox="0 0 293 30" width="293" height="30" preserveAspectRatio="none">
  <rect width="293" height="30" fill="#0cf" opacity="0.125"/>
  <path d="M0 0L0 0001 L1 0001 L2 0001 L3 0001 L4 0001 L5 0001 L6 0001 L7 0001 L8 0001 L9 0001 L10 0001 L11 0001 L12 0001 L13 0001 L14 0001 L15 0001 L16 0001 L17 0001 L18 0001 L19 0001 L20 0001 L21 0001 L22 0001 L23 0001 L24 0001 L25 0001 L26 0001 L27 0001 L28 0002 L29 0001 L30 0010 L31 0001 L32 0010 L33 0001 L34 0010 L35 0001 L36 0010 L37 0001 L38 0010 L39 0001 L40 0010 L41 0010 L42 0001 L43 0001 L44 0001 L45 0001 L46 0011 L47 0011 L48 0011 L49 0011 L50 0011 L51 0011 L52 0011 L53 0011 L54 0011 L55 0011 L56 0011 L57 0011 L58 0001 L59 0011 L60 0001 L61 0010 L62 0011 L63 0001 L64 0010 L65 0001 L66 0020 L67 0001 L68 0001 L69 0001 L70 0001 L71 0001 L72 0001 L73 0010 L74 0010 L75 0010 L76 0010 L77 0010 L78 0011 L79 0011 L80 0011 L81 0010 L82 0010 L83 0010 L84 0010 L85 0010 L86 0010 L87 0010 L88 0010 L89 0010 L90 0010 L91 0010 L92 0010 L93 0010 L94 0010 L95 0010 L96 0010 L97 0010 L98 0010 L99 0010 L100 0010 L101 0010 L102 0010 L103 0010 L104 0010 L105 0010 L106 0010 L107 0010 L108 0010 L109 0010 L110 0010 L111 0010 L112 0010 L113 0010 L114 0010 L115 0010 L116 0010 L117 0010 L118 0010 L119 0010 L120 0010 L121 0010 L122 0010 L123 0010 L124 0010 L125 0010 L126 0010 L127 0010 L128 0010 L129 0010 L130 0010 L131 0010 L132 0010 L133 0010 L134 0010 L135 0010 L136 0010 L137 0010 L138 0010 L139 0010 L140 0010 L141 0010 L142 0010 L143 0010 L144 0010 L145 0010 L146 0010 L147 0010 L148 0010 L149 0010 L150 0010 L151 0010 L152 0010 L153 0010 L154 0010 L155 0010 L156 0010 L157 0010 L158 0020 L159 0010 L160 0020 L161 0010 L162 0020 L163 0010 L164 0020 L165 0020 L166 0020 L167 0020 L168 0020 L169 0020 L170 0030 L171 0010 L172 0010 L173 0010 L174 0010 L175 0010 L176 0010 L177 0010 L178 0010 L179 0010 L180 0010 L181 0010 L182 0010 L183 0010 L184 0010 L185 0010 L186 0010 L187 0010 L188 0010 L189 0001 L190 0001 L191 0011 L192 0001 L193 0001 L194 0001 L195 0010 L196 0020 L197 0020 L198 0021 L199 0020 L200 0020 L201 0020 L202 0020 L203 0010 L204 0010 L205 0010 L206 0020 L207 0020 L208 0010 L209 0011 L210 0011 L211 0020 L212 0011 L213 0020 L214 0021 L215 0020 L216 0020 L217 0020 L218 0020 L219 0011 L220 0011 L221 0010 L222 0020 L223 0020 L224 0020 L225 0020 L226 0020 L227 0020 L228 0010 L229 0020 L230 0020 L231 0020 L232 0020 L233 0020 L234 0020 L235 0010 L236 0020 L237 0020 L238 0020 L239 0020 L240 0020 L241 0020 L242 0010 L243 0020 L244 0020 L245 0020 L246 0020 L247 0020 L248 0020 L249 0020 L250 0020 L251 0020 L252 0010 L253 0020 L254 0020 L255 0020 L256 0010 L257 0020 L258 0020 L259 0010 L260 0010 L261 0010 L262 0010 L263 0010 L264 0010 L265 0010 L266 0010 L267 0010 L268 0010 L269 0010 L270 0010 L271 0010 L272 0010 L273 0010 L274 0010 L275 0010 L276 0010 L277 0010 L278 0010 L279 0010 L280 0010 L281 0010 L282 0010 L283 0010 L284 0010 L285 0010 L286 0010 L287 0010 L288 0010 L289 0010 L290 0010 L291 0010 L292 0010 V0 H0 z" transform="scale(1,-1) translate(0, -30)" fill="#0cf" opacity="0.8"/>
  <text font-family="Helvetica, sans-serif" x="2" y="2">Max: 30</text>
  <text font-family="Helvetica, sans-serif" x="2" y="4">Max Selector: .disclosure-group.is-active .disclosure-show</text>
</svg>