<svg xmlns="http://www.w3.org/2000/svg" viewBox="0 0 931 20" width="931" height="20" preserveAspectRatio="none">
  <rect width="931" height="20" fill="#0cf" opacity="0.125"/>
  <path d="M0 0L0 0001 L1 0001 L2 0001 L3 0001 L4 0001 L5 0001 L6 0001 L7 0001 L8 0001 L9 0001 L10 0001 L11 0001 L12 0001 L13 0001 L14 0001 L15 0011 L16 0010 L17 0001 L18 0001 L19 0001 L20 0001 L21 0011 L22 0011 L23 0011 L24 0001 L25 0011 L26 0001 L27 0001 L28 0001 L29 0001 L30 0001 L31 0001 L32 0001 L33 0001 L34 0001 L35 0001 L36 0001 L37 0001 L38 0001 L39 0001 L40 0001 L41 0001 L42 0001 L43 0011 L44 0001 L45 0001 L46 0001 L47 0001 L48 0001 L49 0001 L50 0001 L51 0001 L52 0001 L53 0001 L54 0001 L55 0001 L56 0012 L57 0011 L58 0011 L59 0011 L60 0012 L61 0011 L62 0011 L63 0011 L64 0012 L65 0012 L66 0002 L67 0002 L68 0001 L69 0001 L70 0001 L71 0001 L72 0001 L73 0001 L74 0001 L75 0001 L76 0001 L77 0001 L78 0001 L79 0001 L80 0001 L81 0001 L82 0001 L83 0011 L84 0011 L85 0011 L86 0011 L87 0010 L88 0010 L89 0010 L90 0020 L91 0010 L92 0010 L93 0010 L94 0010 L95 0010 L96 0010 L97 0010 L98 0010 L99 0010 L100 0010 L101 0010 L102 0010 L103 0010 L104 0010 L105 0010 L106 0010 L107 0010 L108 0010 L109 0010 L110 0010 L111 0010 L112 0010 L113 0010 L114 0010 L115 0010 L116 0010 L117 0010 L118 0010 L119 0010 L120 0010 L121 0010 L122 0010 L123 0010 L124 0010 L125 0010 L126 0010 L127 0010 L128 0010 L129 0010 L130 0010 L131 0010 L132 0010 L133 0010 L134 0010 L135 0010 L136 0010 L137 0010 L138 0010 L139 0010 L140 0010 L141 0010 L142 0010 L143 0010 L144 0010 L145 0010 L146 0010 L147 0010 L148 0010 L149 0010 L150 0010 L151 0010 L152 0010 L153 0010 L154 0010 L155 0010 L156 0010 L157 0010 L158 0010 L159 0010 L160 0010 L161 0010 L162 0010 L163 0010 L164 0010 L165 0010 L166 0010 L167 0010 L168 0010 L169 0010 L170 0010 L171 0010 L172 0010 L173 0010 L174 0010 L175 0010 L176 0010 L177 0020 L178 0020 L179 0020 L180 0020 L181 0010 L182 0010 L183 0010 L184 0010 L185 0020 L186 0010 L187 0020 L188 0020 L189 0020 L190 0020 L191 0020 L192 0010 L193 0020 L194 0020 L195 0020 L196 0020 L197 0020 L198 0020 L199 0020 L200 0020 L201 0020 L202 0020 L203 0020 L204 0020 L205 0020 L206 0020 L207 0020 L208 0020 L209 0010 L210 0010 L211 0010 L212 0010 L213 0010 L214 0010 L215 0011 L216 0011 L217 0011 L218 0010 L219 0010 L220 0010 L221 0010 L222 0010 L223 0010 L224 0010 L225 0010 L226 0010 L227 0010 L228 0010 L229 0010 L230 0010 L231 0010 L232 0010 L233 0010 L234 0001 L235 0010 L236 0010 L237 0010 L238 0010 L239 0001 L240 0010 L241 0010 L242 0010 L243 0010 L244 0010 L245 0010 L246 0010 L247 0010 L248 0010 L249 0010 L250 0010 L251 0010 L252 0010 L253 0001 L254 0010 L255 0010 L256 0010 L257 0010 L258 0010 L259 0010 L260 0010 L261 0020 L262 0020 L263 0020 L264 0020 L265 0020 L266 0010 L267 0020 L268 0010 L269 0010 L270 0010 L271 0010 L272 0010 L273 0010 L274 0010 L275 0010 L276 0010 L277 0010 L278 0010 L279 0010 L280 0010 L281 0010 L282 0010 L283 0010 L284 0010 L285 0010 L286 0010 L287 0010 L288 0010 L289 0010 L290 0010 L291 0010 L292 0010 L293 0010 L294 0010 L295 0010 L296 0010 L297 0010 L298 0010 L299 0010 L300 0010 L301 0010 L302 0010 L303 0010 L304 0010 L305 0010 L306 0010 L307 0010 L308 0010 L309 0010 L310 0010 L311 0010 L312 0010 L313 0010 L314 0010 L315 0010 L316 0010 L317 0010 L318 0010 L319 0010 L320 0010 L321 0010 L322 0010 L323 0010 L324 0010 L325 0010 L326 0010 L327 0010 L328 0010 L329 0010 L330 0010 L331 0010 L332 0010 L333 0010 L334 0010 L335 0010 L336 0010 L337 0010 L338 0010 L339 0010 L340 0010 L341 0010 L342 0010 L343 0010 L344 0010 L345 0010 L346 0010 L347 0010 L348 0010 L349 0010 L350 0010 L351 0010 L352 0010 L353 0010 L354 0010 L355 0010 L356 0010 L357 0010 L358 0010 L359 0010 L360 0010 L361 0010 L362 0010 L363 0010 L364 0010 L365 0010 L366 0010 L367 0010 L368 0010 L369 0010 L370 0010 L371 0010 L372 0010 L373 0010 L374 0010 L375 0010 L376 0010 L377 0010 L378 0010 L379 0010 L380 0010 L381 0010 L382 0010 L383 0010 L384 0010 L385 0010 L386 0010 L387 0010 L388 0010 L389 0010 L390 0010 L391 0010 L392 0010 L393 0010 L394 0010 L395 0010 L396 0010 L397 0010 L398 0010 L399 0010 L400 0010 L401 0010 L402 0010 L403 0010 L404 0010 L405 0010 L406 0010 L407 0010 L408 0010 L409 0010 L410 0010 L411 0010 L412 0010 L413 0010 L414 0010 L415 0010 L416 0010 L417 0010 L418 0010 L419 0010 L420 0010 L421 0010 L422 0010 L423 0010 L424 0010 L425 0010 L426 0010 L427 0010 L428 0010 L429 0010 L430 0010 L431 0010 L432 0010 L433 0010 L434 0010 L435 0010 L436 0010 L437 0010 L438 0010 L439 0010 L440 0010 L441 0010 L442 0010 L443 0010 L444 0010 L445 0010 L446 0010 L447 0010 L448 0010 L449 0010 L450 0010 L451 0010 L452 0010 L453 0010 L454 0010 L455 0010 L456 0010 L457 0010 L458 0010 L459 0010 L460 0010 L461 0010 L462 0010 L463 0010 L464 0010 L465 0010 L466 0010 L467 0010 L468 0010 L469 0010 L470 0010 L471 0010 L472 0010 L473 0010 L474 0010 L475 0010 L476 0010 L477 0010 L478 0010 L479 0010 L480 0010 L481 0010 L482 0010 L483 0010 L484 0010 L485 0010 L486 0010 L487 0010 L488 0010 L489 0010 L490 0010 L491 0010 L492 0010 L493 0010 L494 0010 L495 0010 L496 0010 L497 0010 L498 0010 L499 0010 L500 0010 L501 0010 L502 0010 L503 0010 L504 0010 L505 0010 L506 0010 L507 0010 L508 0010 L509 0010 L510 0010 L511 0010 L512 0010 L513 0010 L514 0010 L515 0010 L516 0010 L517 0010 L518 0010 L519 0010 L520 0010 L521 0010 L522 0010 L523 0010 L524 0010 L525 0010 L526 0010 L527 0010 L528 0010 L529 0010 L530 0010 L531 0010 L532 0010 L533 0010 L534 0010 L535 0010 L536 0010 L537 0010 L538 0010 L539 0010 L540 0010 L541 0010 L542 0010 L543 0010 L544 0010 L545 0010 L546 0010 L547 0010 L548 0010 L549 0010 L550 0020 L551 0020 L552 0020 L553 0020 L554 0020 L555 0020 L556 0020 L557 0020 L558 0020 L559 0020 L560 0020 L561 0020 L562 0020 L563 0020 L564 0020 L565 0020 L566 0020 L567 0020 L568 0020 L569 0020 L570 0020 L571 0020 L572 0020 L573 0020 L574 0020 L575 0020 L576 0020 L577 0020 L578 0020 L579 0020 L580 0020 L581 0020 L582 0020 L583 0020 L584 0020 L585 0020 L586 0020 L587 0020 L588 0020 L589 0020 L590 0020 L591 0020 L592 0020 L593 0020 L594 0020 L595 0020 L596 0020 L597 0020 L598 0020 L599 0020 L600 0020 L601 0020 L602 0020 L603 0020 L604 0020 L605 0020 L606 0020 L607 0020 L608 0020 L609 0020 L610 0020 L611 0020 L612 0020 L613 0020 L614 0020 L615 0020 L616 0020 L617 0020 L618 0020 L619 0020 L620 0020 L621 0020 L622 0020 L623 0020 L624 0020 L625 0020 L626 0020 L627 0020 L628 0020 L629 0020 L630 0020 L631 0020 L632 0020 L633 0020 L634 0020 L635 0020 L636 0020 L637 0020 L638 0020 L639 0020 L640 0020 L641 0020 L642 0020 L643 0020 L644 0020 L645 0020 L646 0020 L647 0020 L648 0020 L649 0020 L650 0020 L651 0020 L652 0020 L653 0020 L654 0020 L655 0020 L656 0020 L657 0020 L658 0020 L659 0020 L660 0020 L661 0020 L662 0020 L663 0020 L664 0020 L665 0020 L666 0020 L667 0020 L668 0020 L669 0020 L670 0020 L671 0020 L672 0020 L673 0020 L674 0020 L675 0020 L676 0020 L677 0020 L678 0020 L679 0020 L680 0020 L681 0020 L682 0020 L683 0020 L684 0020 L685 0020 L686 0020 L687 0020 L688 0020 L689 0020 L690 0020 L691 0020 L692 0020 L693 0020 L694 0020 L695 0020 L696 0020 L697 0020 L698 0020 L699 0020 L700 0020 L701 0020 L702 0020 L703 0020 L704 0020 L705 0020 L706 0020 L707 0020 L708 0020 L709 0020 L710 0020 L711 0020 L712 0020 L713 0020 L714 0020 L715 0020 L716 0020 L717 0020 L718 0020 L719 0020 L720 0020 L721 0020 L722 0020 L723 0020 L724 0020 L725 0020 L726 0020 L727 0020 L728 0020 L729 0020 L730 0020 L731 0020 L732 0020 L733 0020 L734 0020 L735 0020 L736 0020 L737 0020 L738 0020 L739 0020 L740 0020 L741 0020 L742 0020 L743 0020 L744 0020 L745 0020 L746 0020 L747 0020 L748 0020 L749 0020 L750 0020 L751 0020 L752 0020 L753 0020 L754 0010 L755 0020 L756 0020 L757 0020 L758 0010 L759 0010 L760 0010 L761 0010 L762 0010 L763 0010 L764 0010 L765 0010 L766 0010 L767 0010 L768 0010 L769 0010 L770 0010 L771 0010 L772 0010 L773 0010 L774 0010 L775 0010 L776 0010 L777 0010 L778 0010 L779 0010 L780 0010 L781 0010 L782 0010 L783 0010 L784 0010 L785 0010 L786 0010 L787 0010 L788 0010 L789 0010 L790 0010 L791 0010 L792 0010 L793 0010 L794 0010 L795 0010 L796 0010 L797 0010 L798 0010 L799 0010 L800 0010 L801 0010 L802 0010 L803 0010 L804 0010 L805 0010 L806 0010 L807 0010 L808 0010 L809 0010 L810 0010 L811 0010 L812 0010 L813 0010 L814 0010 L815 0010 L816 0010 L817 0010 L818 0010 L819 0010 L820 0010 L821 0010 L822 0010 L823 0010 L824 0010 L825 0010 L826 0010 L827 0010 L828 0010 L829 0010 L830 0010 L831 0010 L832 0010 L833 0010 L834 0010 L835 0010 L836 0010 L837 0010 L838 0010 L839 0010 L840 0010 L841 0010 L842 0010 L843 0010 L844 0010 L845 0010 L846 0010 L847 0010 L848 0010 L849 0010 L850 0010 L851 0010 L852 0010 L853 0010 L854 0010 L855 0010 L856 0010 L857 0010 L858 0010 L859 0010 L860 0010 L861 0010 L862 0010 L863 0010 L864 0010 L865 0010 L866 0010 L867 0010 L868 0010 L869 0010 L870 0010 L871 0010 L872 0010 L873 0010 L874 0010 L875 0010 L876 0010 L877 0010 L878 0010 L879 0010 L880 0010 L881 0010 L882 0010 L883 0010 L884 0010 L885 0010 L886 0020 L887 0020 L888 0020 L889 0020 L890 0010 L891 0011 L892 0020 L893 0010 L894 0010 L895 0010 L896 0010 L897 0010 L898 0010 L899 0010 L900 0010 L901 0010 L902 0010 L903 0010 L904 0010 L905 0010 L906 0010 L907 0010 L908 0010 L909 0010 L910 0010 L911 0010 L912 0010 L913 0010 L914 0010 L915 0010 L916 0010 L917 0010 L918 0010 L919 0010 L920 0010 L921 0010 L922 0010 L923 0010 L924 0010 L925 0010 L926 0010 L927 0010 L928 0010 L929 0010 L930 0010 V0 H0 z" transform="scale(1,-1) translate(0, -20)" fill="#0cf" opacity="0.8"/>
  <text x="8" y="12">Max: 20</text>
</svg>